<svg xmlns="http://www.w3.org/2000/svg" viewBox="0 0 30 33.333">
  <defs>
    <style>
      .cls-1 {
        fill: #616161;
      }
    </style>
  </defs>
  <path id="ic_date_range_24px" class="cls-1" d="M13,17H9.667v3.333H13Zm6.667,0H16.333v3.333h3.333Zm6.667,0H23v3.333h3.333ZM29.667,5.333H28V2H24.667V5.333H11.333V2H8V5.333H6.333A3.318,3.318,0,0,0,3.017,8.667L3,32a3.332,3.332,0,0,0,3.333,3.333H29.667A3.343,3.343,0,0,0,33,32V8.667A3.343,3.343,0,0,0,29.667,5.333Zm0,26.667H6.333V13.667H29.667Z" transform="translate(-3 -2)"/>
</svg>
