<svg xmlns="http://www.w3.org/2000/svg" viewBox="0 0 55.204 55.204">
  <defs>
    <style>
      .cls-1 {
        fill: #9e9e9e;
      }

      .cls-1, .cls-2 {
        opacity: 0.99;
      }

      .cls-2 {
        fill: #e6e6e6;
      }
    </style>
  </defs>
  <g id="Missing_avatar" transform="translate(-43.237 -85.352)">
    <g id="g4574" transform="translate(43.237 85.352)">
      <path id="path4498" class="cls-1" d="M-27.683,113.606a27.6,27.6,0,0,1-27.486,27.6,27.6,27.6,0,0,1-27.717-27.37A27.6,27.6,0,0,1-55.634,86.006a27.6,27.6,0,0,1,27.946,27.135" transform="translate(82.887 -86.004)"/>
      <path id="path4500" class="cls-2" d="M-43.3,104.544a12.642,12.642,0,0,0-12.482,12.747A12.642,12.642,0,0,0-50.7,127.306a17.246,17.246,0,0,0-9.689,15.624,17.248,17.248,0,0,0,.2,2.355q.663.532,1.358,1.023a16.1,16.1,0,0,1-.41-3.388,16.1,16.1,0,0,1,9.66-14.87,12.642,12.642,0,0,0,6.489,1.776,12.642,12.642,0,0,0,6.385-1.777,16.1,16.1,0,0,1,9.656,14.466l0,.271a16.1,16.1,0,0,1-.395,3.488q.687-.46,1.345-.962a17.246,17.246,0,0,0,.2-2.526l0-.29a17.246,17.246,0,0,0-9.671-15.2l-.032.021a12.642,12.642,0,0,0,5.1-10.128l0-.213a12.642,12.642,0,0,0-12.8-12.428Zm.015,1.149a11.493,11.493,0,0,1,11.636,11.3l0,.193a11.493,11.493,0,0,1-11.444,11.492,11.493,11.493,0,0,1-11.541-11.4,11.493,11.493,0,0,1,11.347-11.588Z" transform="translate(70.744 -96.009)"/>
    </g>
  </g>
</svg>
