<svg xmlns="http://www.w3.org/2000/svg" viewBox="0 0 30 29.26">
  <defs>
    <style>
      .cls-1 {
        fill: #616161;
        fill-rule: evenodd;
      }
    </style>
  </defs>
  <path id="Octicons-mark-github" class="cls-1" d="M15,0a15,15,0,0,0-4.744,29.231c.75.131,1.031-.319,1.031-.713,0-.356-.019-1.537-.019-2.794-3.769.694-4.744-.919-5.044-1.763a5.454,5.454,0,0,0-1.537-2.119c-.525-.281-1.275-.975-.019-.994a3,3,0,0,1,2.306,1.537,3.206,3.206,0,0,0,4.369,1.238,3.155,3.155,0,0,1,.956-2.006c-3.337-.375-6.825-1.669-6.825-7.406a5.838,5.838,0,0,1,1.537-4.031,5.39,5.39,0,0,1,.15-3.975s1.256-.394,4.125,1.538a14.142,14.142,0,0,1,7.5,0c2.869-1.95,4.125-1.538,4.125-1.538a5.39,5.39,0,0,1,.15,3.975A5.8,5.8,0,0,1,24.6,14.212c0,5.756-3.506,7.031-6.844,7.406a3.552,3.552,0,0,1,1.013,2.775c0,2.006-.019,3.619-.019,4.125,0,.394.281.863,1.031.713A15.008,15.008,0,0,0,15,0Z"/>
</svg>
