<?xml version="1.0" encoding="utf-8"?>
<!-- Generator: Adobe Illustrator 16.0.0, SVG Export Plug-In . SVG Version: 6.00 Build 0)  -->
<!DOCTYPE svg PUBLIC "-//W3C//DTD SVG 1.1//EN" "http://www.w3.org/Graphics/SVG/1.1/DTD/svg11.dtd">
<svg version="1.1" id="Layer_1" xmlns="http://www.w3.org/2000/svg" xmlns:xlink="http://www.w3.org/1999/xlink" x="0px" y="0px"
	 width="500px" height="500px" viewBox="0 0 500 500" enable-background="new 0 0 500 500" xml:space="preserve">
<path fill="#364473" d="M178.878,332.411c1.245-6.728,1.659-21.221-4.562-25.994c-3.257-2.832-7.231-4.733-11.49-5.481
	c-49.412-6.637-83.69,80.999-46.609,119.11c23.608,24.335,55.723,43.709,115.178,47.228c103.58,6.22,163.642-53.962,167.789-123.048
	c3.945-64.208-43.615-95.494-108.552-130.09l-43.914-21.439c-37.384-20.716-56.754-37.804-55.409-71.466
	c3.419-45.679,41.431-68.775,82.855-64.427c37.082,3.935,39.67,25.377,38.538,53.548l-1.559,27.552
	c-0.829,10.606,7.12,19.872,17.723,20.695c0.099,0.004,0.201,0.015,0.303,0.021c25.266,1.552,55.51-10.358,57.472-42.983
	c2.186-37.182-19.562-77.581-109.686-82.86c-97.35-6.322-157.32,49.197-160.951,109.791c-3.105,51.06,22.688,83.998,82.243,115.905
	l46.812,23.406c45.572,25.065,72.496,45.467,69.604,88.767c-2.893,43.294-24.032,76.023-77.889,70.422
	c-53.861-5.586-59.242-53.336-60.385-71.251c-0.151-3.075-0.151-6.148,0-9.222c0.232-9.449,1.132-18.856,2.691-28.183"/>
</svg>
