<?xml version="1.0" encoding="iso-8859-1"?>
<!-- Generator: Adobe Illustrator 19.0.0, SVG Export Plug-In . SVG Version: 6.00 Build 0)  -->
<svg version="1.1" id="Layer_1" xmlns="http://www.w3.org/2000/svg" xmlns:xlink="http://www.w3.org/1999/xlink" x="0px" y="0px"
	 viewBox="0 0 512 512" style="enable-background:new 0 0 512 512;" xml:space="preserve">
<path style="fill:#8F25A9;" d="M496.993,106.814l-58.262,19.421c-8.828,3.531-32.662,30.897-73.269,83.862
	c-43.255,54.731-66.207,90.041-69.738,107.697l-2.648,48.552l-0.883,30.897l5.297,74.152l76.8,1.766L363.697,512H134.179
	l4.414-34.428l36.193-1.766c18.538-1.766,30.014-6.179,33.545-11.476c2.648-3.531,3.531-27.366,3.531-68.855v-25.6l-0.883-51.2
	c-2.648-11.476-22.069-54.731-60.91-128.883c-39.724-76.8-65.324-121.821-77.683-137.71L0,37.076V0h243.641l-2.648,30.897
	l-75.917,11.476c23.834,54.731,60.028,131.531,108.579,227.752c63.559-75.917,97.103-125.352,97.986-146.538l-64.441-15.89
	l-3.531-37.076H512L496.993,106.814z"/>
<g>
</g>
<g>
</g>
<g>
</g>
<g>
</g>
<g>
</g>
<g>
</g>
<g>
</g>
<g>
</g>
<g>
</g>
<g>
</g>
<g>
</g>
<g>
</g>
<g>
</g>
<g>
</g>
<g>
</g>
</svg>
