<svg xmlns="http://www.w3.org/2000/svg" viewBox="0 0 30 35.857">
  <defs>
    <style>
      .cls-1 {
        fill: none;
      }

      .cls-2 {
        fill: #616161;
      }
    </style>
  </defs>
  <g id="evernote-icon-logo-svg-vector" transform="translate(0 0)">
    <path id="Path_83" data-name="Path 83" class="cls-1" d="M81.144,56.258c-1.445-.051-1.852,1.162-1.975,2.15a7.147,7.147,0,0,1,1.385-.084,6.58,6.58,0,0,1,2.418.524C82.966,57.824,82.743,56.313,81.144,56.258Z" transform="translate(-58.21 -41.363)"/>
    <path id="Path_84" data-name="Path 84" class="cls-2" d="M4.562,9.637H7.929a.349.349,0,0,0,.348-.348S8.237,6.4,8.237,5.6v-.01a3.794,3.794,0,0,1,.379-1.714l.115-.216a.071.071,0,0,0-.038.021L2.153,10.167a.073.073,0,0,0-.024.038c.135-.067.32-.159.346-.17a5.026,5.026,0,0,1,2.086-.4Z" transform="translate(-1.565 -2.692)"/>
    <path id="Path_85" data-name="Path 85" class="cls-2" d="M29.182,6.239a2.985,2.985,0,0,0-1.888-2.413,24.935,24.935,0,0,0-4.626-.86,35.952,35.952,0,0,0-4.909-.147A2.914,2.914,0,0,0,16.139.6,12.587,12.587,0,0,0,10.033.2,3.267,3.267,0,0,0,8.251,1.337,2.639,2.639,0,0,0,7.8,2.908c0,.391.011,1.311.021,2.13s.021,1.554.021,1.56A1.328,1.328,0,0,1,6.52,7.923H3.154a4.052,4.052,0,0,0-1.686.311,2.347,2.347,0,0,0-.943.751A3.4,3.4,0,0,0,0,11.094a18.072,18.072,0,0,0,.156,1.823c.125.93,1.133,7.427,2.091,9.4A2.42,2.42,0,0,0,3.6,23.748a36.284,36.284,0,0,0,7.081,1.693c1.737.222,2.828.689,3.478-.673,0,0,.131-.338.306-.832a13.5,13.5,0,0,0,.643-4.324.082.082,0,1,1,.164,0c0,.775-.149,3.518,1.924,4.253a24.767,24.767,0,0,0,4.239.751c1.559.18,2.689.792,2.689,4.792,0,2.433-.511,2.766-3.182,2.766-2.166,0-2.992.056-2.992-1.664,0-1.391,1.376-1.245,2.395-1.245.456,0,.125-.338.125-1.2s.535-1.348.029-1.36c-3.524-.1-5.6,0-5.6,4.4,0,4,1.531,4.745,6.535,4.745,3.922,0,5.3-.128,6.924-5.153a46.422,46.422,0,0,0,1.565-9.1,99.994,99.994,0,0,0-.737-15.362ZM22.344,16.961a7.187,7.187,0,0,0-1.385.084c.123-.987.53-2.2,1.975-2.15,1.6.055,1.823,1.567,1.828,2.59a6.582,6.582,0,0,0-2.418-.524Z" transform="translate(0)"/>
  </g>
</svg>
