<svg xmlns="http://www.w3.org/2000/svg" viewBox="0 0 30 27.525">
  <defs>
    <style>
      .cls-1 {
        fill: #616161;
      }
    </style>
  </defs>
  <path id="ic_favorite_border_24px" class="cls-1" d="M23.75,3A8.983,8.983,0,0,0,17,6.135,8.983,8.983,0,0,0,10.25,3,8.17,8.17,0,0,0,2,11.25c0,5.67,5.1,10.29,12.825,17.31L17,30.525l2.175-1.98C26.9,21.54,32,16.92,32,11.25A8.17,8.17,0,0,0,23.75,3Zm-6.6,23.325-.15.15-.15-.15C9.71,19.86,5,15.585,5,11.25A5.127,5.127,0,0,1,10.25,6,5.864,5.864,0,0,1,15.6,9.54H18.41A5.827,5.827,0,0,1,23.75,6,5.127,5.127,0,0,1,29,11.25C29,15.585,24.29,19.86,17.15,26.325Z" transform="translate(-2 -3)"/>
</svg>
