<svg xmlns="http://www.w3.org/2000/svg" viewBox="0 0 29.64 30.472">
  <defs>
    <style>
      .cls-1 {
        fill: #616161;
      }
    </style>
  </defs>
  <path id="ic_settings_24px" class="cls-1" d="M28.414,18.729a11.874,11.874,0,0,0,.107-1.493,11.874,11.874,0,0,0-.107-1.493l3.215-2.514a.769.769,0,0,0,.183-.975L28.765,6.982a.766.766,0,0,0-.929-.335L24.042,8.17a11.131,11.131,0,0,0-2.575-1.493L20.888,2.64A.743.743,0,0,0,20.141,2H14.047a.743.743,0,0,0-.747.64l-.579,4.037A11.705,11.705,0,0,0,10.147,8.17L6.353,6.647a.743.743,0,0,0-.929.335L2.376,12.254a.751.751,0,0,0,.183.975l3.215,2.514a12.083,12.083,0,0,0-.107,1.493,12.083,12.083,0,0,0,.107,1.493L2.559,21.243a.769.769,0,0,0-.183.975l3.047,5.272a.766.766,0,0,0,.929.335L10.147,26.3a11.131,11.131,0,0,0,2.575,1.493l.579,4.037a.743.743,0,0,0,.747.64h6.094a.743.743,0,0,0,.747-.64l.579-4.037A11.706,11.706,0,0,0,24.042,26.3l3.794,1.524a.743.743,0,0,0,.929-.335l3.047-5.272a.769.769,0,0,0-.183-.975Zm-11.32,3.839a5.333,5.333,0,1,1,5.333-5.333A5.338,5.338,0,0,1,17.094,22.568Z" transform="translate(-2.271 -2)"/>
</svg>
